<svg id="visual" viewBox="0 0 960 540" width="960" height="540" xmlns="http://www.w3.org/2000/svg" xmlns:xlink="http://www.w3.org/1999/xlink" version="1.1"><rect x="0" y="0" width="960" height="540" fill="#fff"></rect><path d="M0 222L22.8 211.8C45.7 201.7 91.3 181.3 137 173C182.7 164.7 228.3 168.3 274 175.2C319.7 182 365.3 192 411.2 192.8C457 193.7 503 185.3 548.8 187.5C594.7 189.7 640.3 202.3 686 200.2C731.7 198 777.3 181 823 175.8C868.7 170.7 914.3 177.3 937.2 180.7L960 184L960 0L937.2 0C914.3 0 868.7 0 823 0C777.3 0 731.7 0 686 0C640.3 0 594.7 0 548.8 0C503 0 457 0 411.2 0C365.3 0 319.7 0 274 0C228.3 0 182.7 0 137 0C91.3 0 45.7 0 22.8 0L0 0Z" fill="#c2e4e5"></path><path d="M0 108L22.8 116C45.7 124 91.3 140 137 152C182.7 164 228.3 172 274 168.7C319.7 165.3 365.3 150.7 411.2 144.8C457 139 503 142 548.8 143.7C594.7 145.3 640.3 145.7 686 148C731.7 150.3 777.3 154.7 823 149.3C868.7 144 914.3 129 937.2 121.5L960 114L960 0L937.2 0C914.3 0 868.7 0 823 0C777.3 0 731.7 0 686 0C640.3 0 594.7 0 548.8 0C503 0 457 0 411.2 0C365.3 0 319.7 0 274 0C228.3 0 182.7 0 137 0C91.3 0 45.7 0 22.8 0L0 0Z" fill="#9cbabe"></path><path d="M0 88L22.8 90C45.7 92 91.3 96 137 104C182.7 112 228.3 124 274 130C319.7 136 365.3 136 411.2 128.8C457 121.7 503 107.3 548.8 104.5C594.7 101.7 640.3 110.3 686 119C731.7 127.7 777.3 136.3 823 134.3C868.7 132.3 914.3 119.7 937.2 113.3L960 107L960 0L937.2 0C914.3 0 868.7 0 823 0C777.3 0 731.7 0 686 0C640.3 0 594.7 0 548.8 0C503 0 457 0 411.2 0C365.3 0 319.7 0 274 0C228.3 0 182.7 0 137 0C91.3 0 45.7 0 22.8 0L0 0Z" fill="#789298"></path><path d="M0 95L22.8 90.2C45.7 85.3 91.3 75.7 137 75.3C182.7 75 228.3 84 274 87.2C319.7 90.3 365.3 87.7 411.2 80.7C457 73.7 503 62.3 548.8 65.7C594.7 69 640.3 87 686 87.3C731.7 87.7 777.3 70.3 823 65.2C868.7 60 914.3 67 937.2 70.5L960 74L960 0L937.2 0C914.3 0 868.7 0 823 0C777.3 0 731.7 0 686 0C640.3 0 594.7 0 548.8 0C503 0 457 0 411.2 0C365.3 0 319.7 0 274 0C228.3 0 182.7 0 137 0C91.3 0 45.7 0 22.8 0L0 0Z" fill="#566b73"></path><path d="M0 63L22.8 61C45.7 59 91.3 55 137 49.5C182.7 44 228.3 37 274 35.8C319.7 34.7 365.3 39.3 411.2 44.8C457 50.3 503 56.7 548.8 53.5C594.7 50.3 640.3 37.7 686 33.5C731.7 29.3 777.3 33.7 823 38.8C868.7 44 914.3 50 937.2 53L960 56L960 0L937.2 0C914.3 0 868.7 0 823 0C777.3 0 731.7 0 686 0C640.3 0 594.7 0 548.8 0C503 0 457 0 411.2 0C365.3 0 319.7 0 274 0C228.3 0 182.7 0 137 0C91.3 0 45.7 0 22.8 0L0 0Z" fill="#37474f"></path></svg>