<svg id="visual" viewBox="0 0 960 540" width="960" height="540" xmlns="http://www.w3.org/2000/svg" xmlns:xlink="http://www.w3.org/1999/xlink" version="1.1"><rect x="0" y="0" width="960" height="540" fill="#fff"></rect><path d="M0 316L22.8 326.2C45.7 336.3 91.3 356.7 137 365C182.7 373.3 228.3 369.7 274 362.8C319.7 356 365.3 346 411.2 345.2C457 344.3 503 352.7 548.8 350.5C594.7 348.3 640.3 335.7 686 337.8C731.7 340 777.3 357 823 362.2C868.7 367.3 914.3 360.7 937.2 357.3L960 354L960 541L937.2 541C914.3 541 868.7 541 823 541C777.3 541 731.7 541 686 541C640.3 541 594.7 541 548.8 541C503 541 457 541 411.2 541C365.3 541 319.7 541 274 541C228.3 541 182.7 541 137 541C91.3 541 45.7 541 22.8 541L0 541Z" fill="#c2e4e5"></path><path d="M0 430L22.8 422C45.7 414 91.3 398 137 386C182.7 374 228.3 366 274 369.3C319.7 372.7 365.3 387.3 411.2 393.2C457 399 503 396 548.8 394.3C594.7 392.7 640.3 392.3 686 390C731.7 387.7 777.3 383.3 823 388.7C868.7 394 914.3 409 937.2 416.5L960 424L960 541L937.2 541C914.3 541 868.7 541 823 541C777.3 541 731.7 541 686 541C640.3 541 594.7 541 548.8 541C503 541 457 541 411.2 541C365.3 541 319.7 541 274 541C228.3 541 182.7 541 137 541C91.3 541 45.7 541 22.8 541L0 541Z" fill="#9cbabe"></path><path d="M0 450L22.8 448C45.7 446 91.3 442 137 434C182.7 426 228.3 414 274 408C319.7 402 365.3 402 411.2 409.2C457 416.3 503 430.7 548.8 433.5C594.7 436.3 640.3 427.7 686 419C731.7 410.3 777.3 401.7 823 403.7C868.7 405.7 914.3 418.3 937.2 424.7L960 431L960 541L937.2 541C914.3 541 868.7 541 823 541C777.3 541 731.7 541 686 541C640.3 541 594.7 541 548.8 541C503 541 457 541 411.2 541C365.3 541 319.7 541 274 541C228.3 541 182.7 541 137 541C91.3 541 45.7 541 22.8 541L0 541Z" fill="#789298"></path><path d="M0 443L22.8 447.8C45.7 452.7 91.3 462.3 137 462.7C182.7 463 228.3 454 274 450.8C319.7 447.7 365.3 450.3 411.2 457.3C457 464.3 503 475.7 548.8 472.3C594.7 469 640.3 451 686 450.7C731.7 450.3 777.3 467.7 823 472.8C868.7 478 914.3 471 937.2 467.5L960 464L960 541L937.2 541C914.3 541 868.7 541 823 541C777.3 541 731.7 541 686 541C640.3 541 594.7 541 548.8 541C503 541 457 541 411.2 541C365.3 541 319.7 541 274 541C228.3 541 182.7 541 137 541C91.3 541 45.7 541 22.8 541L0 541Z" fill="#566b73"></path><path d="M0 475L22.8 477C45.7 479 91.3 483 137 488.5C182.7 494 228.3 501 274 502.2C319.7 503.3 365.3 498.7 411.2 493.2C457 487.7 503 481.3 548.8 484.5C594.7 487.7 640.3 500.3 686 504.5C731.7 508.7 777.3 504.3 823 499.2C868.7 494 914.3 488 937.2 485L960 482L960 541L937.2 541C914.3 541 868.7 541 823 541C777.3 541 731.7 541 686 541C640.3 541 594.7 541 548.8 541C503 541 457 541 411.2 541C365.3 541 319.7 541 274 541C228.3 541 182.7 541 137 541C91.3 541 45.7 541 22.8 541L0 541Z" fill="#37474f"></path></svg>